<?xml version="1.0" encoding="utf-8"?>
<!-- Generator: Adobe Illustrator 24.2.3, SVG Export Plug-In . SVG Version: 6.00 Build 0)  -->
<svg version="1.1" id="Layer_1" xmlns="http://www.w3.org/2000/svg" xmlns:xlink="http://www.w3.org/1999/xlink" x="0px" y="0px"
	 viewBox="0 0 512 512" style="enable-background:new 0 0 512 512;" xml:space="preserve">
<style type="text/css">
	.st0{fill:url(#b_3_);}
	.st1{fill:url(#b_4_);}
	.st2{fill:none;stroke:#FFFFFF;stroke-width:30;}
</style>
<path id="b" d="M159.3,2.2h193.3c86.8,0,157.1,70.4,157.1,157.1v193.3c0,86.8-70.4,157.1-157.1,157.1H159.3
	c-86.8,0-157.1-70.4-157.1-157.1V159.3C2.2,72.5,72.5,2.2,159.3,2.2z"/>
<g>
	
		<radialGradient id="b_3_" cx="-48.5043" cy="651.7285" r="1" gradientTransform="matrix(507.6109 0 0 -507.6108 24826.5488 331334.25)" gradientUnits="userSpaceOnUse">
		<stop  offset="0.1" style="stop-color:#FFDD55"/>
		<stop  offset="0.5" style="stop-color:#FF543E"/>
		<stop  offset="1" style="stop-color:#C837AB"/>
	</radialGradient>
	<path id="b_1_" class="st0" d="M160.1,2.2h191.8c87.2,0,157.9,70.7,157.9,157.9v191.8c0,87.2-70.7,157.9-157.9,157.9H160.1
		c-87.2,0-157.9-70.7-157.9-157.9V160.1C2.2,72.9,72.9,2.2,160.1,2.2z"/>
</g>
<g>
	
		<linearGradient id="b_4_" gradientUnits="userSpaceOnUse" x1="-48.513" y1="652.7719" x2="-48.3246" y2="651.83" gradientTransform="matrix(512 0 0 -512 25039 334197)">
		<stop  offset="0.1" style="stop-color:#3771C8"/>
		<stop  offset="0.5" style="stop-color:#6600FF;stop-opacity:0"/>
	</linearGradient>
	<path id="b_2_" class="st1" d="M159,2.2H353c86.6,0,156.8,70.2,156.8,156.8V353c0,86.6-70.2,156.8-156.8,156.8H159
		C72.4,509.8,2.2,439.6,2.2,353V159C2.2,72.4,72.4,2.2,159,2.2z"/>
</g>
<g>
	<path class="st2" d="M170,74.5h172c52.7,0,95.4,42.7,95.4,95.4v172c0,52.7-42.7,95.4-95.4,95.4H170c-52.7,0-95.4-42.7-95.4-95.4
		V170C74.5,117.3,117.3,74.5,170,74.5z"/>
	<circle class="st2" cx="256" cy="256" r="84.8"/>
	<circle class="st2" cx="363.2" cy="148.8" r="7.1"/>
</g>
</svg>
